<svg width="2013" height="1769" viewBox="0 0 2013 1769" fill="none" xmlns="http://www.w3.org/2000/svg">
<path d="M1540.37 229.911C1718.71 368.447 1887.02 560.039 1964.89 810.583C2042.76 1058.18 2030.2 1367.67 1897.06 1544.53C1761.42 1724.33 1502.69 1774.44 1296.7 1768.54C1088.21 1762.65 932.47 1703.7 759.144 1650.64C583.306 1597.59 394.909 1547.48 241.679 1397.15C88.4491 1246.82 -27.1014 993.333 5.55419 772.265C40.7217 548.249 224.095 359.604 412.493 221.068C600.89 85.4797 791.8 0 982.709 0C1171.11 2.94757 1362.02 91.3748 1540.37 229.911Z" fill="#C1FFFB" fill-opacity="0.16"/>
<path d="M1666.39 1315.57C1666.39 1315.57 1654.95 1266.16 1663.53 1222.54C1672.12 1178.91 1692.16 1208.01 1715.09 1178.91C1738.02 1149.82 1726.54 1094.6 1752.3 1071.32C1778.06 1048.03 1815.3 1050.97 1823.89 1007.35C1832.48 963.722 1838.23 928.712 1855.41 934.661C1872.58 940.61 1841.1 992.783 1841.1 1024.82C1841.1 1056.85 1858.27 1077.13 1846.82 1109.13C1835.37 1141.13 1786.68 1129.47 1786.68 1167.25C1786.68 1205.03 1806.71 1242.84 1789.54 1269.03C1772.37 1295.22 1726.54 1301 1720.81 1315.53C1715.09 1330.06 1700.61 1356.25 1686.43 1356.25C1672.25 1356.25 1666.39 1315.57 1666.39 1315.57Z" fill="#8EDDB2"/>
<path d="M1657.2 1316.04C1660.06 1307.33 1654.34 1231.73 1628.58 1217.2C1602.82 1202.67 1574.16 1208.48 1559.85 1182.3C1545.54 1156.11 1545.5 1144.52 1531.19 1141.61C1516.88 1138.7 1448.15 1127.04 1456.74 1141.61C1465.33 1156.17 1516.88 1132.86 1516.88 1161.95C1516.88 1191.05 1511.16 1237.55 1528.33 1249.17C1545.5 1260.79 1591.34 1257.89 1588.47 1284.08C1585.61 1310.27 1577.02 1318.95 1591.34 1327.7C1605.65 1336.46 1645.75 1374.2 1651.48 1345.14L1657.2 1316.04Z" fill="#8EDDB2"/>
<path d="M1688.96 1380.22C1688.96 1380.22 1675.49 1337.86 1712.29 1259.97C1749.1 1182.09 1775.67 1122.84 1792.34 1092.45" stroke="#4B8F56" stroke-width="1.25654" stroke-miterlimit="10"/>
<path d="M1658.92 1386.99C1658.92 1386.99 1653.94 1366.64 1637.23 1310.78C1620.53 1254.91 1600.56 1239.66 1572.21 1221.03C1543.85 1202.4 1542.2 1171.94 1537.19 1163.46" stroke="#4B8F56" stroke-width="1.25654" stroke-miterlimit="10"/>
<path d="M1728.96 1356.49C1728.96 1356.49 1732.33 1326.03 1759 1317.55C1785.67 1309.07 1810.69 1312.49 1815.71 1293.86C1820.72 1275.22 1820.69 1256.59 1832.37 1246.43C1844.06 1236.28 1859.04 1231.19 1860.73 1236.18C1862.41 1241.17 1843.89 1244.66 1843.89 1261.58C1843.89 1278.5 1868.91 1320.83 1832.24 1337.75C1795.57 1354.68 1765.53 1339.46 1752.2 1351.43C1738.86 1363.4 1730.51 1371.74 1730.51 1371.74L1728.96 1356.49Z" fill="#8EDDB2"/>
<path d="M1725.63 1386.99C1725.63 1386.99 1737.31 1342.95 1765.67 1332.8C1794.02 1322.64 1825.57 1344.66 1839.04 1324.32C1852.51 1303.98 1842.41 1283.7 1840.69 1270.16" stroke="#4B8F56" stroke-width="1.25654" stroke-miterlimit="10"/>
<path d="M1744.38 1380.22H1641C1639.91 1380.21 1638.82 1380.43 1637.81 1380.85C1636.8 1381.27 1635.88 1381.89 1635.1 1382.68C1634.33 1383.46 1633.71 1384.4 1633.29 1385.42C1632.87 1386.45 1632.65 1387.55 1632.65 1388.66C1632.65 1390.91 1633.53 1393.07 1635.1 1394.66C1636.67 1396.25 1638.79 1397.14 1641 1397.14H1641.85L1649.89 1418.58C1650.52 1420.24 1651.63 1421.67 1653.07 1422.67C1654.52 1423.68 1656.23 1424.22 1657.98 1424.22H1727.45C1729.2 1424.22 1730.9 1423.67 1732.35 1422.67C1733.79 1421.66 1734.9 1420.24 1735.53 1418.58L1743.58 1397.14H1744.38C1746.6 1397.14 1748.72 1396.25 1750.29 1394.66C1751.86 1393.07 1752.74 1390.91 1752.74 1388.66C1752.74 1387.55 1752.52 1386.45 1752.1 1385.42C1751.68 1384.4 1751.06 1383.46 1750.29 1382.68C1749.51 1381.89 1748.59 1381.27 1747.58 1380.85C1746.56 1380.43 1745.48 1380.21 1744.38 1380.22Z" fill="#B5D6BA"/>
<path d="M782.567 566.925H287.928C279.131 566.925 272 574.165 272 583.096V646.62C272 655.552 279.131 662.792 287.928 662.792H782.567C791.364 662.792 798.495 655.552 798.495 646.62V583.096C798.495 574.165 791.364 566.925 782.567 566.925Z" fill="#92E3A9"/>
<path d="M388.243 465.245V485.246C388.243 500.632 394.978 506.17 405.518 506.17C416.058 506.17 422.793 500.632 422.793 485.246V437.894C422.793 422.509 416.058 416.662 405.518 416.662C394.978 416.662 388.243 422.509 388.243 437.894V444.356H356.724L362.785 319.427H450.675V350.198H392.789L390.061 401.482C393.036 396.417 397.321 392.277 402.45 389.51C407.579 386.744 413.357 385.457 419.156 385.789C443.704 385.789 456.197 403.328 456.197 435.022V482.887C456.197 517.35 439.36 537.043 406.494 537.043C373.628 537.043 356.791 517.35 356.791 482.887V465.245H388.243Z" fill="#263238"/>
<path d="M481.588 371.156C481.588 336.693 499.469 317 532.099 317C564.729 317 582.61 336.693 582.61 371.156V483.161C582.61 517.624 564.729 537.317 532.099 537.317C499.469 537.317 481.588 517.624 481.588 483.161V371.156ZM514.925 485.315C514.925 500.7 521.66 506.546 532.2 506.546C542.74 506.546 549.475 500.7 549.475 485.315V369.071C549.475 353.685 542.74 347.839 532.2 347.839C521.66 347.839 514.925 353.685 514.925 369.071V485.315Z" fill="#263238"/>
<path d="M607.664 371.156C607.664 336.693 625.545 317 658.175 317C690.805 317 708.686 336.693 708.686 371.156V483.161C708.686 517.624 690.805 537.317 658.175 537.317C625.545 537.317 607.664 517.624 607.664 483.161V371.156ZM641.001 485.315C641.001 500.7 647.736 506.546 658.276 506.546C668.816 506.546 675.551 500.7 675.551 485.315V369.071C675.551 353.685 668.816 347.839 658.276 347.839C647.736 347.839 641.001 353.685 641.001 369.071V485.315Z" fill="#263238"/>
<path d="M695.001 1219.65C716.025 1216.46 737.437 1221.87 754.536 1234.7C782.048 1256.17 802.96 1310.77 813.769 1387.22C824.579 1463.66 830.606 1496.62 894.149 1507.49C957.693 1518.37 1109.97 1513.96 1200.92 1511.8C1291.87 1509.65 1287.67 1423.73 1211.53 1415.15C1135.39 1406.57 1082.66 1427.18 1003.22 1409.34C923.783 1391.49 1073.94 1367.86 1188.23 1385.06C1302.52 1402.26 1353.23 1406.53 1414.62 1400.1" stroke="#263238" stroke-width="2.51308" stroke-linecap="round" stroke-linejoin="round"/>
<path d="M695.001 1105.32C695.001 1105.32 756.658 1105.8 773.562 1170.28C790.467 1234.76 796.831 1324.96 798.953 1395.93C801.074 1466.91 803.196 1526.98 883.576 1544.15C963.956 1561.31 1181.89 1554.88 1241.13 1541.99C1300.36 1529.1 1365.96 1471.12 1317.3 1458.23C1268.64 1445.34 1200.92 1458.23 1226.38 1475.32C1251.84 1492.42 1319.49 1488.21 1399.87 1477.48" stroke="#263238" stroke-width="2.51308" stroke-linecap="round" stroke-linejoin="round"/>
<path d="M707.662 1329.57C707.662 1329.57 745.344 1326.15 760.059 1369.47C774.775 1412.79 756.692 1422.67 764.976 1444.28C773.259 1465.89 824.848 1445.71 824.612 1463.63C824.377 1479.97 803.97 1484.59 686.38 1477.54C532.624 1468.35 430.894 1492.52 439.077 1507.49C447.26 1522.47 570.103 1510.91 540.605 1534.09C511.106 1557.27 439.077 1530.67 383.38 1529.1C327.683 1527.53 317.85 1540.73 317.85 1540.73" stroke="#263238" stroke-width="2.51308" stroke-linecap="round" stroke-linejoin="round"/>
<path d="M712.208 718.812H341.995C335.374 718.812 330.007 724.261 330.007 730.983V1443.08C330.007 1449.8 335.374 1455.25 341.995 1455.25H712.208C718.829 1455.25 724.196 1449.8 724.196 1443.08V730.983C724.196 724.261 718.829 718.812 712.208 718.812Z" fill="#263238" stroke="#263238" stroke-width="1.25654" stroke-linecap="round" stroke-linejoin="round"/>
<path d="M714.599 829.107H339.436V1111.2H714.599V829.107Z" fill="#616161"/>
<path d="M714.599 1157.05H339.436V1439.15H714.599V1157.05Z" fill="#616161"/>
<path d="M668.061 1191.41H455.073V1411.93H668.061V1191.41Z" fill="#92E3A9" stroke="#263238" stroke-width="1.25654" stroke-linecap="round" stroke-linejoin="round"/>
<path d="M668.061 860.63H455.073V915.059H668.061V860.63Z" fill="#92E3A9" stroke="#263238" stroke-width="1.25654" stroke-linecap="round" stroke-linejoin="round"/>
<path d="M668.061 965.147H455.073V1019.58H668.061V965.147Z" fill="#92E3A9" stroke="#263238" stroke-width="1.25654" stroke-linecap="round" stroke-linejoin="round"/>
<path d="M660.922 835.432L656.814 846.885H468.138L464.03 835.432H424.058V885.759H464.03L468.138 874.305H656.814L660.922 885.759H706.18V835.432H660.922Z" fill="#263238" stroke="#263238" stroke-width="1.25654" stroke-linecap="round" stroke-linejoin="round"/>
<path d="M660.922 890.34L656.814 901.759H468.138L464.03 890.34H424.058V940.633H464.03L468.138 929.214H656.814L660.922 940.633H706.18V890.34H660.922Z" fill="#263238" stroke="#263238" stroke-width="1.25654" stroke-linecap="round" stroke-linejoin="round"/>
<path d="M660.922 945.214L656.814 956.668H468.138L464.03 945.214H424.058V995.541H464.03L468.138 984.088H656.814L660.922 995.541H706.18V945.214H660.922Z" fill="#263238" stroke="#263238" stroke-width="1.25654" stroke-linecap="round" stroke-linejoin="round"/>
<path d="M660.922 1000.09L656.814 1011.54H468.138L464.03 1000.09H424.058V1050.42H464.03L468.138 1039H656.814L660.922 1050.42H706.18V1000.09H660.922Z" fill="#263238" stroke="#263238" stroke-width="1.25654" stroke-linecap="round" stroke-linejoin="round"/>
<path d="M660.922 1055L656.814 1066.42H468.138L464.03 1055H424.058V1105.32H464.03L468.138 1093.87H656.814L660.922 1105.32H706.18V1055H660.922Z" fill="#263238" stroke="#263238" stroke-width="1.25654" stroke-linecap="round" stroke-linejoin="round"/>
<path d="M660.922 1164.78L656.814 1176.2H468.138L464.03 1164.78H424.058V1215.07H464.03L468.138 1203.65H656.814L660.922 1215.07H706.18V1164.78H660.922Z" fill="#263238" stroke="#263238" stroke-width="1.25654" stroke-linecap="round" stroke-linejoin="round"/>
<path d="M660.922 1219.65L656.814 1231.11H468.138L464.03 1219.65H424.058V1269.98H464.03L468.138 1258.56H656.814L660.922 1269.98H706.18V1219.65H660.922Z" fill="#263238" stroke="#263238" stroke-width="1.25654" stroke-linecap="round" stroke-linejoin="round"/>
<path d="M660.922 1274.56L656.814 1285.98H468.138L464.03 1274.56H424.058V1324.85H464.03L468.138 1313.43H656.814L660.922 1324.85H706.18V1274.56H660.922Z" fill="#263238" stroke="#263238" stroke-width="1.25654" stroke-linecap="round" stroke-linejoin="round"/>
<path d="M660.922 1329.44L656.814 1340.89H468.138L464.03 1329.44H424.058V1379.76H464.03L468.138 1368.31H656.814L660.922 1379.76H706.18V1329.44H660.922Z" fill="#263238" stroke="#263238" stroke-width="1.25654" stroke-linecap="round" stroke-linejoin="round"/>
<path d="M660.922 1384.34L656.814 1395.76H468.138L464.03 1384.34H424.058V1434.64H464.03L468.138 1423.22H656.814L660.922 1434.64H706.18V1384.34H660.922Z" fill="#263238" stroke="#263238" stroke-width="1.25654" stroke-linecap="round" stroke-linejoin="round"/>
<path d="M706.113 1119.99H346.979V1154.35H706.113V1119.99Z" fill="white"/>
<path d="M377.285 1136.81C377.285 1134.91 376.73 1133.05 375.691 1131.47C374.651 1129.89 373.173 1128.66 371.444 1127.94C369.715 1127.21 367.812 1127.02 365.977 1127.39C364.141 1127.76 362.455 1128.67 361.132 1130.02C359.808 1131.36 358.907 1133.07 358.542 1134.94C358.177 1136.8 358.364 1138.73 359.081 1140.49C359.797 1142.24 361.01 1143.74 362.566 1144.8C364.122 1145.86 365.951 1146.42 367.823 1146.42C369.065 1146.42 370.296 1146.17 371.444 1145.69C372.592 1145.2 373.635 1144.5 374.514 1143.61C375.392 1142.71 376.089 1141.65 376.565 1140.49C377.04 1139.32 377.285 1138.07 377.285 1136.81Z" fill="#263238" stroke="#263238" stroke-width="1.25654" stroke-linecap="round" stroke-linejoin="round"/>
<path d="M399.342 1146.42C404.568 1146.42 408.804 1142.12 408.804 1136.81C408.804 1131.51 404.568 1127.2 399.342 1127.2C394.116 1127.2 389.879 1131.51 389.879 1136.81C389.879 1142.12 394.116 1146.42 399.342 1146.42Z" fill="#92E3A9" stroke="#263238" stroke-width="1.25654" stroke-linecap="round" stroke-linejoin="round"/>
<path d="M440.323 1136.81C440.323 1134.91 439.768 1133.05 438.728 1131.47C437.689 1129.89 436.211 1128.66 434.482 1127.94C432.753 1127.21 430.85 1127.02 429.015 1127.39C427.179 1127.76 425.493 1128.67 424.17 1130.02C422.846 1131.36 421.945 1133.07 421.58 1134.94C421.215 1136.8 421.402 1138.73 422.118 1140.49C422.835 1142.24 424.047 1143.74 425.604 1144.8C427.16 1145.86 428.989 1146.42 430.861 1146.42C433.37 1146.42 435.777 1145.41 437.552 1143.61C439.326 1141.8 440.323 1139.36 440.323 1136.81Z" fill="#263238" stroke="#263238" stroke-width="1.25654" stroke-linecap="round" stroke-linejoin="round"/>
<path d="M706.113 790.644H346.979V825.004H706.113V790.644Z" fill="white"/>
<path d="M377.285 807.533C377.285 805.633 376.73 803.776 375.691 802.196C374.651 800.616 373.173 799.385 371.444 798.657C369.715 797.93 367.812 797.74 365.977 798.111C364.141 798.481 362.455 799.396 361.132 800.74C359.808 802.084 358.907 803.796 358.542 805.659C358.177 807.523 358.364 809.454 359.081 811.21C359.797 812.965 361.01 814.466 362.566 815.522C364.122 816.577 365.951 817.141 367.823 817.141C369.065 817.141 370.296 816.892 371.444 816.409C372.592 815.927 373.635 815.219 374.514 814.327C375.392 813.435 376.089 812.376 376.565 811.21C377.04 810.044 377.285 808.795 377.285 807.533Z" fill="white" stroke="#263238" stroke-width="1.25654" stroke-linecap="round" stroke-linejoin="round"/>
<path d="M408.77 807.533C408.77 805.633 408.215 803.776 407.176 802.196C406.136 800.616 404.658 799.385 402.929 798.657C401.2 797.93 399.298 797.74 397.462 798.111C395.626 798.481 393.94 799.396 392.617 800.74C391.294 802.084 390.393 803.796 390.027 805.659C389.662 807.523 389.85 809.454 390.566 811.21C391.282 812.965 392.495 814.466 394.051 815.522C395.607 816.577 397.437 817.141 399.308 817.141C401.818 817.141 404.224 816.128 405.999 814.327C407.774 812.525 408.77 810.081 408.77 807.533Z" fill="#92E3A9" stroke="#263238" stroke-width="1.25654" stroke-linecap="round" stroke-linejoin="round"/>
<path d="M440.323 807.533C440.323 805.633 439.768 803.776 438.728 802.196C437.689 800.616 436.211 799.385 434.482 798.657C432.753 797.93 430.85 797.74 429.015 798.111C427.179 798.481 425.493 799.396 424.17 800.74C422.846 802.084 421.945 803.796 421.58 805.659C421.215 807.523 421.402 809.454 422.118 811.21C422.835 812.965 424.047 814.466 425.604 815.522C427.16 816.577 428.989 817.141 430.861 817.141C433.37 817.141 435.777 816.128 437.552 814.327C439.326 812.525 440.323 810.081 440.323 807.533Z" fill="white" stroke="#263238" stroke-width="1.25654" stroke-linecap="round" stroke-linejoin="round"/>
<path d="M706.113 746.437H346.979V780.797H706.113V746.437Z" fill="white"/>
<path d="M377.285 763.258C377.285 761.358 376.73 759.5 375.691 757.921C374.651 756.341 373.173 755.109 371.444 754.382C369.715 753.655 367.812 753.465 365.977 753.835C364.141 754.206 362.455 755.121 361.132 756.465C359.808 757.808 358.907 759.52 358.542 761.384C358.177 763.247 358.364 765.179 359.081 766.935C359.797 768.69 361.01 770.191 362.566 771.246C364.122 772.302 365.951 772.865 367.823 772.865C369.065 772.865 370.296 772.617 371.444 772.134C372.592 771.651 373.635 770.944 374.514 770.051C375.392 769.159 376.089 768.1 376.565 766.935C377.04 765.769 377.285 764.52 377.285 763.258Z" fill="#92E3A9" stroke="#263238" stroke-width="1.25654" stroke-linecap="round" stroke-linejoin="round"/>
<path d="M408.77 763.258C408.77 761.358 408.215 759.5 407.176 757.921C406.136 756.341 404.658 755.109 402.929 754.382C401.2 753.655 399.298 753.465 397.462 753.835C395.626 754.206 393.94 755.121 392.617 756.465C391.294 757.808 390.393 759.52 390.027 761.384C389.662 763.247 389.85 765.179 390.566 766.935C391.282 768.69 392.495 770.191 394.051 771.246C395.607 772.302 397.437 772.865 399.308 772.865C401.818 772.865 404.224 771.853 405.999 770.051C407.774 768.25 408.77 765.806 408.77 763.258Z" fill="#263238" stroke="#263238" stroke-width="1.25654" stroke-linecap="round" stroke-linejoin="round"/>
<path d="M440.323 763.258C440.323 761.358 439.768 759.5 438.728 757.921C437.689 756.341 436.211 755.109 434.482 754.382C432.753 753.655 430.85 753.465 429.015 753.835C427.179 754.206 425.493 755.121 424.17 756.465C422.846 757.808 421.945 759.52 421.58 761.384C421.215 763.247 421.402 765.179 422.118 766.935C422.835 768.69 424.047 770.191 425.604 771.246C427.16 772.302 428.989 772.865 430.861 772.865C433.37 772.865 435.777 771.853 437.552 770.051C439.326 768.25 440.323 765.806 440.323 763.258Z" fill="#263238" stroke="#263238" stroke-width="1.25654" stroke-linecap="round" stroke-linejoin="round"/>
<path d="M407.12 836.287H347.888V862.066H407.12V836.287Z" fill="#263238" stroke="#263238" stroke-width="1.25654" stroke-linecap="round" stroke-linejoin="round"/>
<path d="M407.12 892.118H347.888V917.897H407.12V892.118Z" fill="#263238" stroke="#263238" stroke-width="1.25654" stroke-linecap="round" stroke-linejoin="round"/>
<path d="M407.12 947.984H347.888V973.762H407.12V947.984Z" fill="#92E3A9" stroke="#263238" stroke-width="1.25654" stroke-linecap="round" stroke-linejoin="round"/>
<path d="M407.12 1003.81H347.888V1029.59H407.12V1003.81Z" fill="#92E3A9" stroke="#263238" stroke-width="1.25654" stroke-linecap="round" stroke-linejoin="round"/>
<path d="M407.12 1059.68H347.888V1085.46H407.12V1059.68Z" fill="#92E3A9" stroke="#263238" stroke-width="1.25654" stroke-linecap="round" stroke-linejoin="round"/>
<path d="M407.12 1164.2H347.888V1189.98H407.12V1164.2Z" fill="#92E3A9" stroke="#263238" stroke-width="1.25654" stroke-linecap="round" stroke-linejoin="round"/>
<path d="M407.12 1220.06H347.888V1245.84H407.12V1220.06Z" fill="#263238" stroke="#263238" stroke-width="1.25654" stroke-linecap="round" stroke-linejoin="round"/>
<path d="M407.12 1275.89H347.888V1301.67H407.12V1275.89Z" fill="#92E3A9" stroke="#263238" stroke-width="1.25654" stroke-linecap="round" stroke-linejoin="round"/>
<path d="M407.12 1331.76H347.888V1357.54H407.12V1331.76Z" fill="#263238" stroke="#263238" stroke-width="1.25654" stroke-linecap="round" stroke-linejoin="round"/>
<path d="M407.12 1387.59H347.888V1413.37H407.12V1387.59Z" fill="#92E3A9" stroke="#263238" stroke-width="1.25654" stroke-linecap="round" stroke-linejoin="round"/>
<path d="M903.241 562.6C903.241 562.6 846.467 577.267 830.707 599.183C814.948 621.098 751.068 770.13 751.068 770.13C751.068 770.13 730.358 793.721 752.752 816.457C775.145 839.193 819.932 847.603 836.533 827.397C853.134 807.191 877.144 712.008 880.478 701.067C883.811 690.127 908.663 597.473 911.155 592.448C913.647 587.422 916.038 565.609 903.241 562.6Z" fill="#BDBDBD" stroke="#263238" stroke-width="1.25654" stroke-linecap="round" stroke-linejoin="round"/>
<path d="M903.241 562.6C903.241 562.6 846.467 577.267 830.707 599.183C821.178 612.414 794.036 672.246 774.067 717.41C783.766 715.427 824.175 709.341 871.487 733.547C876.033 717.41 879.4 704.657 880.478 701.067C883.845 690.127 908.663 597.473 911.155 592.448C913.647 587.422 916.038 565.609 903.241 562.6Z" fill="#263238" stroke="#263238" stroke-width="1.25654" stroke-linecap="round" stroke-linejoin="round"/>
<path d="M1069.59 368.438C1079.36 374.035 1087.18 382.562 1091.99 392.85C1098.72 408.85 1098.72 433.262 1098.72 433.262C1098.72 433.262 1204.89 429.843 1245.54 429.056C1286.18 428.27 1313.56 438.322 1314.37 458.528C1315.18 478.733 1306.09 518.325 1283.69 533.471C1261.3 548.617 1191.63 524.205 1155.97 514.12C1120.3 504.034 1107.85 507.282 1082.15 503.863C1056.46 500.444 1048.95 490.392 1044.81 474.391C1040.67 458.391 1048.95 428.065 1048.95 403.653C1048.95 379.242 1045.55 363.378 1069.59 368.438Z" fill="#BDBDBD" stroke="#263238" stroke-width="1.25654" stroke-linecap="round" stroke-linejoin="round"/>
<path d="M1224.69 471.998C1224.69 471.998 1209.78 510.735 1182.4 531.796C1162.77 546.907 1136.27 555.523 1122.9 559.147C1075.05 545.471 1007.5 539.044 967.997 547.933C967.997 547.933 912.839 561.335 903.241 562.566C893.644 563.797 870.847 641.715 866.031 695.289C861.216 748.864 876.841 881.622 876.841 891.366C876.841 901.11 882.835 1063.1 892.432 1108.16C902.029 1153.22 912.839 1214.15 914.017 1222.63C915.196 1231.11 923.614 1294.43 923.614 1315.18C923.614 1335.93 913.882 1385.85 913.882 1385.85C913.882 1385.85 870.712 1415.08 853.909 1432.11C837.105 1449.13 866.267 1467.12 887.583 1471.08C923.749 1477.92 966.717 1441.85 966.717 1441.85L1014.9 1422.4C1027.67 1417.2 1031.44 1403.28 1031.74 1390.81L1033.96 1300.61C1041.51 1332.52 1047.7 1364.76 1052.55 1397.34C1054.51 1410.67 1056.53 1424.69 1064.44 1435.46C1068.83 1441.64 1074.51 1446.76 1081.07 1450.47C1085.86 1452.72 1090.94 1452.24 1095.76 1455.05C1104.61 1460.24 1108.25 1471.46 1116.84 1477.1C1135.33 1488.2 1156.55 1493.72 1178.02 1493C1178.02 1493 1225.97 1495.46 1228.53 1468.65C1231.09 1441.85 1166.14 1398.02 1166.14 1398.02C1166.14 1398.02 1156.54 1220.23 1149.3 1161.77C1142.06 1103.31 1122.9 1008.33 1122.9 966.89C1122.9 925.453 1142.09 730.607 1142.09 730.607C1142.09 730.607 1144.05 725.479 1147.04 717.136L1150.21 715.359C1177.58 699.358 1253.89 637.031 1278.78 597.439C1302.62 559.557 1311.24 488.477 1311.91 467.69" fill="#BDBDBD"/>
<path d="M1224.69 471.998C1224.69 471.998 1209.78 510.735 1182.4 531.796C1162.77 546.907 1136.27 555.523 1122.9 559.147C1075.05 545.471 1007.5 539.044 967.997 547.933C967.997 547.933 912.839 561.335 903.241 562.566C893.644 563.797 870.847 641.715 866.031 695.289C861.216 748.864 876.841 881.622 876.841 891.366C876.841 901.11 882.835 1063.1 892.432 1108.16C902.029 1153.22 912.839 1214.15 914.017 1222.63C915.196 1231.11 923.614 1294.43 923.614 1315.18C923.614 1335.93 913.882 1385.85 913.882 1385.85C913.882 1385.85 870.712 1415.08 853.909 1432.11C837.105 1449.13 866.267 1467.12 887.583 1471.08C923.749 1477.92 966.717 1441.85 966.717 1441.85L1014.9 1422.4C1027.67 1417.2 1031.44 1403.28 1031.74 1390.81L1033.96 1300.61C1041.51 1332.52 1047.7 1364.76 1052.55 1397.34C1054.51 1410.67 1056.53 1424.69 1064.44 1435.46C1068.83 1441.64 1074.51 1446.76 1081.07 1450.47C1085.86 1452.72 1090.94 1452.24 1095.76 1455.05C1104.61 1460.24 1108.25 1471.46 1116.84 1477.1C1135.33 1488.2 1156.55 1493.72 1178.02 1493C1178.02 1493 1225.97 1495.46 1228.53 1468.65C1231.09 1441.85 1166.14 1398.02 1166.14 1398.02C1166.14 1398.02 1156.54 1220.23 1149.3 1161.77C1142.06 1103.31 1122.9 1008.33 1122.9 966.89C1122.9 925.453 1142.09 730.607 1142.09 730.607C1142.09 730.607 1144.05 725.479 1147.04 717.136L1150.21 715.359C1177.58 699.358 1253.89 637.031 1278.78 597.439C1302.62 559.557 1311.24 488.477 1311.91 467.69" stroke="#263238" stroke-width="1.25654" stroke-linecap="round" stroke-linejoin="round"/>
<path d="M1228.3 1468.65C1230.69 1441.85 1165.9 1398.02 1165.9 1398.02C1165.9 1398.02 1165.16 1384.34 1163.95 1363.32C1126.37 1372.51 1087.84 1377.1 1049.19 1376.99C1050.33 1383.83 1051.45 1390.67 1052.55 1397.51C1054.51 1410.84 1056.53 1424.86 1064.44 1435.63C1068.83 1441.81 1074.51 1446.93 1081.07 1450.64C1085.86 1452.89 1090.94 1452.41 1095.76 1455.22C1104.61 1460.41 1108.25 1471.63 1116.84 1477.27C1135.33 1488.37 1156.55 1493.89 1178.02 1493.17C1178.02 1493.17 1225.87 1495.46 1228.3 1468.65Z" fill="#263238" stroke="#263238" stroke-width="1.25654" stroke-linecap="round" stroke-linejoin="round"/>
<path d="M1014.9 1422.4C1027.67 1417.2 1031.44 1403.28 1031.74 1390.81C1031.74 1386.09 1031.98 1381.37 1032.08 1376.65C993.787 1375.34 955.749 1369.81 918.631 1360.17C916.341 1374.39 914.118 1385.85 914.118 1385.85C914.118 1385.85 870.948 1415.08 854.145 1432.11C837.341 1449.13 866.503 1467.12 887.819 1471.08C923.985 1477.92 966.953 1441.85 966.953 1441.85L1014.9 1422.4Z" fill="#263238" stroke="#263238" stroke-width="1.25654" stroke-linecap="round" stroke-linejoin="round"/>
<path d="M1228.3 1468.65C1228.3 1468.28 1228.3 1467.87 1228.3 1467.46C1217.7 1475.16 1205.46 1480.19 1192.57 1482.16C1154.65 1489 1120.1 1469.34 1110.84 1460.79C1101.58 1452.24 1095.69 1445.37 1081.34 1435.97C1067 1426.57 1054.03 1403.42 1054.03 1403.42L1053.5 1404.28C1055.28 1415.39 1057.77 1426.5 1064.34 1435.46C1068.73 1441.64 1074.41 1446.76 1080.97 1450.47C1085.76 1452.72 1090.84 1452.24 1095.66 1455.05C1104.51 1460.24 1108.15 1471.46 1116.74 1477.1C1135.22 1488.2 1156.45 1493.72 1177.92 1493C1177.92 1493 1225.87 1495.46 1228.3 1468.65Z" fill="white" stroke="#263238" stroke-width="1.25654" stroke-linecap="round" stroke-linejoin="round"/>
<path d="M1014.9 1422.4C1026.05 1417.85 1030.33 1406.7 1031.47 1395.66C1020.43 1402.5 994.902 1417.44 978.705 1424C957.659 1432.55 943.314 1458.19 902.063 1458.19C872.632 1458.19 856.502 1446.5 849.666 1439.76C846.029 1454.19 869.87 1467.7 887.785 1471.08C923.951 1477.92 966.919 1441.85 966.919 1441.85L1014.9 1422.4Z" fill="white" stroke="#263238" stroke-width="1.25654" stroke-linecap="round" stroke-linejoin="round"/>
<path d="M1170.58 539.727C1155.55 548.201 1139.53 554.736 1122.9 559.181C1075.05 545.505 1007.5 539.078 967.997 547.967C967.997 547.967 912.839 561.369 903.242 562.6C893.644 563.831 870.847 641.749 866.032 695.324C863.068 728.419 867.884 791.601 871.992 837.449C971.97 874.647 1078.58 861.895 1130.71 851.774C1135.96 791.054 1141.92 730.641 1141.92 730.641C1141.92 730.641 1143.88 725.513 1146.87 717.171L1150.04 715.393C1168.66 704.521 1209.81 672.28 1242.1 640.176C1177.28 621.201 1169.44 569.301 1170.58 539.727Z" fill="#263238" stroke="#263238" stroke-width="1.25654" stroke-linecap="round" stroke-linejoin="round"/>
<path d="M1077.64 597.815C1077.44 587.59 1074.87 577.557 1070.13 568.532C1065.39 559.508 1058.62 551.747 1050.36 545.882C1019.72 542.873 989.75 543.078 967.997 547.967C967.997 547.967 952.742 551.694 936.882 555.352C926.202 566.848 920.189 582.013 920.045 597.815C920.045 635.8 955.335 666.604 998.842 666.604C1042.35 666.604 1077.64 635.8 1077.64 597.815Z" fill="#616161" stroke="#263238" stroke-width="1.25654" stroke-linecap="round" stroke-linejoin="round"/>
<path d="M1054.03 1403.42C1072.02 1409.85 1091.1 1412.57 1110.14 1411.42C1151.52 1409.61 1165.9 1398.02 1165.9 1398.02C1165.9 1398.02 1156.3 1220.23 1149.06 1161.77C1141.82 1103.31 1122.66 1008.33 1122.66 966.89C1122.66 942.479 1129.4 864.766 1134.82 805.072L1132.23 805.379C1125.33 806.192 1118.35 805.489 1111.75 803.318C1105.15 801.147 1099.09 797.558 1093.98 792.797C1088.87 788.035 1084.83 782.211 1082.13 775.722C1079.43 769.233 1078.14 762.23 1078.35 755.189L1079.49 716.316C1048.28 718.383 1016.95 717.467 985.911 713.581C930.147 707.187 872.564 688.007 872.564 688.007L866.503 689.887C866.503 691.699 866.133 693.512 865.964 695.289C861.182 748.898 876.774 881.622 876.774 891.366C876.774 901.11 882.768 1063.1 892.365 1108.16C901.962 1153.22 912.771 1214.15 913.95 1222.63C915.128 1231.11 923.547 1294.43 923.547 1315.18C923.547 1335.93 914.32 1383.97 913.983 1385.75C921.19 1388 936.276 1392.58 963.451 1400.41C1004.8 1412.31 1031.51 1397.98 1031.51 1397.98C1031.51 1383.39 1033.9 1300.58 1033.9 1300.58C1033.9 1300.58 1049.12 1370.67 1054.03 1403.42Z" fill="white" stroke="#263238" stroke-width="1.25654" stroke-linecap="round" stroke-linejoin="round"/>
<path d="M917.014 739.325L1024.74 757.309V824.731L964.225 886.203L915.533 826.235L917.014 739.325Z" stroke="#263238" stroke-width="1.25654" stroke-linecap="round" stroke-linejoin="round"/>
<path d="M994.7 1118.45C986.922 1074.01 981.231 1030.11 981.231 998.584L938.06 969.352" stroke="#263238" stroke-width="1.25654" stroke-linecap="round" stroke-linejoin="round"/>
<path d="M1033.96 1300.61C1033.96 1300.61 1015.78 1229.26 1000.76 1151.1" stroke="#263238" stroke-width="1.25654" stroke-linecap="round" stroke-linejoin="round"/>
<path d="M1066.06 922.854C1067.03 926.8 1068.53 930.595 1070.5 934.137C1083.8 958.069 1102.96 961.112 1102.96 961.112L1105.93 898.169" stroke="#263238" stroke-width="1.25654" stroke-linecap="round" stroke-linejoin="round"/>
<path d="M1070.5 886.169C1068.21 890.707 1066.56 895.553 1065.62 900.563" stroke="#263238" stroke-width="1.25654" stroke-linecap="round" stroke-linejoin="round"/>
<path d="M1123.4 1077.63C1124.95 1085.94 1126.53 1094.11 1128.08 1101.9" stroke="#263238" stroke-width="1.25654" stroke-linecap="round" stroke-linejoin="round"/>
<path d="M1102.96 961.112C1102.96 961.112 1110.57 1007.3 1119.36 1055.71" stroke="#263238" stroke-width="1.25654" stroke-linecap="round" stroke-linejoin="round"/>
<path d="M961.026 522.052L960.353 557.95C960.353 557.95 948.163 567.865 945.738 593.849C943.314 619.833 967.694 644.005 995.105 644.005C1022.52 644.005 1046.32 622.329 1050.6 602.533C1054.88 582.738 1049.35 554.258 1049.35 554.258L1047.54 510.94C1047.54 510.94 1020.6 528.24 995.105 523.317C969.613 518.393 962.205 509.06 962.205 509.06L961.026 522.052Z" fill="#BDBDBD" stroke="#263238" stroke-width="1.25654" stroke-linecap="round" stroke-linejoin="round"/>
<path d="M941.866 428.372C941.866 428.372 940.216 448.886 944.593 453.912C948.971 458.938 954.999 462.801 956.11 458.357C957.221 453.912 957.726 430.595 958.838 425.603C959.949 420.611 942.405 414.355 941.866 428.372Z" fill="#BDBDBD" stroke="#263238" stroke-width="1.25654" stroke-linecap="round" stroke-linejoin="round"/>
<path d="M952.574 428.031C952.574 428.031 947.557 469.058 947.557 488.922C947.557 508.786 939.98 516.273 964.394 529.197C988.807 542.121 1009.95 543.762 1026.83 537.744C1043.7 531.727 1052.99 517.231 1053.76 505.196C1054.54 493.161 1054.61 474.426 1054.61 474.426C1054.61 474.426 1078.18 453.023 1073.19 436.817C1068.21 420.611 1057.17 441.091 1057.17 441.091C1061.81 427.013 1064.09 412.242 1063.9 397.397C1063.06 375.105 1046.19 372.541 1039.42 372.541C1032.65 372.541 991.333 359.652 971.97 372.37C952.608 385.089 952.574 428.031 952.574 428.031Z" fill="#BDBDBD" stroke="#263238" stroke-width="1.25654" stroke-linecap="round" stroke-linejoin="round"/>
<path d="M1057.23 440.92C1061.88 426.842 1064.15 412.071 1063.97 397.226C1063.13 374.934 1046.26 372.37 1039.49 372.37H1039.05C1035.48 378.456 1031.07 387.824 1031.07 387.824L1034.44 389.533C1034.44 389.533 1031.07 408.406 1037.8 410.97C1044.54 413.534 1041.17 419.517 1041.17 429.808C1041.17 440.099 1047.1 447.792 1050.46 447.792C1053.12 447.792 1057.2 440.954 1059.02 437.98C1057.91 439.621 1057.23 440.92 1057.23 440.92Z" fill="#263238" stroke="#263238" stroke-width="1.25654" stroke-linecap="round" stroke-linejoin="round"/>
<path d="M990.558 443.382C990.558 443.382 983.453 450.014 986.72 455.04C989.986 460.066 1002.04 462.801 1005.34 456.681C1006.48 454.624 1006.88 452.233 1006.48 449.91C1006.08 447.587 1004.91 445.475 1003.15 443.929" stroke="#263238" stroke-width="1.25654" stroke-linecap="round" stroke-linejoin="round"/>
<path d="M982.915 436.715C982.915 440.134 981.568 442.8 979.884 442.8C978.2 442.8 976.887 440.065 976.887 436.715C976.887 433.364 978.234 430.595 979.884 430.595C981.534 430.595 982.915 433.33 982.915 436.715Z" fill="#263238"/>
<path d="M1019.28 438.287C1019.28 441.706 1017.94 444.407 1016.29 444.407C1014.64 444.407 1013.25 441.672 1013.25 438.287C1013.25 434.903 1014.6 432.202 1016.29 432.202C1017.97 432.202 1019.28 434.868 1019.28 438.287Z" fill="#263238"/>
<path d="M1010.26 421.705C1010.26 421.705 1021.74 413.91 1032.68 426.15" stroke="#263238" stroke-width="1.25654" stroke-linecap="round" stroke-linejoin="round"/>
<path d="M992.815 476.374C991.372 475.637 989.791 475.22 988.177 475.149C986.564 475.078 984.953 475.356 983.453 475.964C982.178 476.502 981.031 477.312 980.09 478.338C979.149 479.364 978.436 480.583 977.998 481.913C977.998 481.913 970.994 487.623 978.368 490.119C985.743 492.614 1001.94 492.443 1006.01 492.273C1007.65 492.042 1009.12 491.173 1010.13 489.85C1011.14 488.527 1011.59 486.856 1011.4 485.195C1011.44 484.522 1011.3 483.852 1011 483.252C1010.69 482.651 1010.24 482.142 1009.69 481.776C1007.99 478.96 1005.35 476.862 1002.25 475.869C999.145 474.877 995.795 475.056 992.815 476.374Z" fill="#666666" stroke="#263238" stroke-width="0.922744" stroke-linecap="round" stroke-linejoin="round"/>
<path d="M976.415 484.067C987.754 482.246 999.347 482.946 1010.39 486.118" stroke="#263238" stroke-width="1.07327" stroke-linecap="round" stroke-linejoin="round"/>
<path d="M938.229 380.952L1028.54 393.841C1028.54 393.841 1066.49 383.584 1069.89 375.857C1073.3 368.131 1060.6 329.599 1053.83 320.163C1047.06 310.727 982.106 327.001 961.834 330.42C941.563 333.839 926.409 338.933 927.352 349.395C928.295 359.857 938.229 380.952 938.229 380.952Z" fill="#92E3A9" stroke="#263238" stroke-width="1.25654" stroke-linecap="round" stroke-linejoin="round"/>
<path d="M938.229 380.952C938.229 380.952 886.741 423.791 885.899 428.031C885.058 432.27 960.993 434.014 984.632 428.885C1008.27 423.757 1028.41 393.739 1028.41 393.739L938.229 380.952Z" fill="white" stroke="#263238" stroke-width="1.25654" stroke-linecap="round" stroke-linejoin="round"/>
<path d="M881.959 948.941L1023.39 864.732C1028.07 868.292 1033.74 870.266 1039.59 870.374C1045.44 870.483 1051.18 868.72 1055.99 865.335C1060.79 861.951 1064.43 857.116 1066.38 851.516C1068.34 845.916 1068.5 839.835 1066.86 834.133L1037.33 851.672L1030.6 839.877L1060.16 822.303C1056.07 818.05 1050.76 815.213 1044.99 814.195C1039.22 813.177 1033.28 814.031 1028.01 816.634C1022.75 819.238 1018.42 823.459 1015.65 828.699C1012.88 833.938 1011.81 839.931 1012.58 845.826L870.982 930.034C866.298 926.474 860.63 924.5 854.78 924.392C848.93 924.284 843.195 926.047 838.387 929.431C833.578 932.816 829.94 937.65 827.988 943.25C826.036 948.85 825.868 954.932 827.508 960.634L856.266 943.539L863.001 955.368L834.243 972.463C838.331 976.725 843.639 979.57 849.411 980.592C855.183 981.613 861.126 980.761 866.393 978.155C871.66 975.549 875.984 971.323 878.748 966.078C881.513 960.833 882.578 954.836 881.791 948.941H881.959Z" fill="#92E3A9" stroke="#263238" stroke-width="1.25654" stroke-linecap="round" stroke-linejoin="round"/>
<path d="M1002.41 886.34C1002.41 886.34 1019.82 898.99 1019.82 910.751C1019.82 922.512 999.078 935.197 985.002 936.017C970.926 936.838 968.401 920.871 970.893 912.461C973.385 904.05 1002.41 886.34 1002.41 886.34Z" fill="#BDBDBD" stroke="#263238" stroke-width="1.25654" stroke-linecap="round" stroke-linejoin="round"/>
<path d="M819.932 781.071C819.932 781.071 916.139 835.774 929.406 834.133C942.674 832.492 960.925 820.662 970.893 823.876C980.86 827.09 1008.2 870.203 1010.7 877.793C1013.19 885.383 990.794 912.324 985.811 916.529C980.827 920.735 965.067 937.59 961.767 939.265C958.467 940.941 936.882 960.326 926.106 960.326C915.331 960.326 897.079 951.881 895.395 947.676C893.712 943.471 897.887 937.59 897.887 937.59L847.376 913.999C847.376 913.999 751.136 860.937 734.568 833.996C718 807.055 759.453 759.053 759.453 759.053" fill="#BDBDBD"/>
<path d="M819.932 781.071C819.932 781.071 916.139 835.774 929.406 834.133C942.674 832.492 960.925 820.662 970.893 823.876C980.86 827.09 1008.2 870.203 1010.7 877.793C1013.19 885.383 990.794 912.324 985.811 916.529C980.827 920.735 965.067 937.59 961.767 939.265C958.467 940.941 936.882 960.326 926.106 960.326C915.331 960.326 897.079 951.881 895.395 947.676C893.712 943.471 897.887 937.59 897.887 937.59L847.376 913.999C847.376 913.999 751.136 860.937 734.568 833.996C718 807.055 759.453 759.053 759.453 759.053" stroke="#263238" stroke-width="1.25654" stroke-linecap="round" stroke-linejoin="round"/>
<path d="M931.09 913.281C934.031 913.678 936.76 915.049 938.855 917.182C940.949 919.315 942.292 922.09 942.674 925.077C944.358 936.017 940.182 955.403 940.182 955.403" stroke="#263238" stroke-width="1.25654" stroke-linecap="round" stroke-linejoin="round"/>
<path d="M950.15 897.281C950.15 897.281 961.767 898.135 961.767 909.076V939.402" stroke="#263238" stroke-width="1.25654" stroke-linecap="round" stroke-linejoin="round"/>
<path d="M962.609 866.989C962.609 866.989 984.16 882.989 985.81 892.255C986.726 900.365 986.726 908.555 985.81 916.666" stroke="#263238" stroke-width="1.25654" stroke-linecap="round" stroke-linejoin="round"/>
<path d="M1058.68 809.243C1063.53 809.243 1076.36 776.626 1076.36 764.386C1076.36 752.146 1081.98 662.468 1094.85 620.791C1104.07 590.943 1112.02 567.9 1115.79 557.198C1105.99 554.668 1095.59 552.412 1084.75 550.36C1078.31 570.156 1058.68 631.936 1050.67 671.22C1041.04 718.504 1043.43 774.78 1044.24 779.669C1045.04 784.558 1053.93 809.243 1058.68 809.243Z" fill="white" stroke="#263238" stroke-width="1.25654" stroke-linecap="round" stroke-linejoin="round"/>
<path d="M1076.39 710.302L1048.82 706.627C1046.56 706.325 1044.48 707.944 1044.18 710.243L1041.29 732.583C1041 734.882 1042.59 736.991 1044.86 737.292L1072.43 740.968C1074.69 741.27 1076.77 739.651 1077.06 737.352L1079.95 715.012C1080.25 712.713 1078.66 710.604 1076.39 710.302Z" fill="white" stroke="#263238" stroke-width="1.25465" stroke-linecap="round" stroke-linejoin="round"/>
<path d="M1069.14 717.4L1054.88 715.479C1052.62 715.173 1050.53 716.792 1050.23 719.094L1048.8 730.042C1048.5 732.344 1050.1 734.458 1052.36 734.764L1066.62 736.684C1068.88 736.99 1070.97 735.371 1071.27 733.069L1072.7 722.122C1073 719.819 1071.41 717.705 1069.14 717.4Z" fill="white" stroke="#263238" stroke-width="1.25654" stroke-linecap="round" stroke-linejoin="round"/>
<path d="M878.828 797.003C883.677 797.003 896.507 764.386 896.507 752.146C896.507 739.907 902.13 650.228 914.994 608.551C923.143 582.157 928.699 565.301 931.831 556.514C919.27 559.386 907.35 562.019 903.376 562.532C900.413 562.908 896.237 570.532 891.691 582.43C886.371 599.183 879.872 620.962 874.854 642.193C870.929 659.686 868.061 677.407 866.267 695.255C865.136 713.161 865.057 731.12 866.032 749.035C866.032 749.651 866.099 750.129 866.234 750.471C866.739 755.429 874.012 797.003 878.828 797.003Z" fill="white" stroke="#263238" stroke-width="1.25654" stroke-linecap="round" stroke-linejoin="round"/>
<path d="M897.131 686.886L869.44 683.886C867.165 683.64 865.124 685.312 864.882 687.622L862.524 710.059C862.281 712.369 863.928 714.441 866.203 714.687L893.894 717.687C896.169 717.933 898.21 716.261 898.452 713.951L900.81 691.514C901.053 689.204 899.406 687.132 897.131 686.886Z" fill="white" stroke="#263238" stroke-width="1.25654" stroke-linecap="round" stroke-linejoin="round"/>
<path d="M889.8 691.872L875.503 690.323C873.228 690.077 871.187 691.749 870.945 694.058L869.791 705.039C869.548 707.349 871.195 709.421 873.47 709.667L887.768 711.216C890.042 711.462 892.083 709.79 892.326 707.48L893.48 696.5C893.722 694.19 892.075 692.118 889.8 691.872Z" fill="white" stroke="#263238" stroke-width="1.25654" stroke-linecap="round" stroke-linejoin="round"/>
<path d="M1349.99 566.815C1335.3 585.014 1325.33 606.526 1320.95 629.46C1313.23 668.424 1294.23 741.635 1296.62 767.026C1299.01 792.418 1305.01 806.576 1328.04 810.71C1351.08 814.845 1364.21 794.757 1368.99 777.634C1372.02 766.366 1374.39 754.932 1376.08 743.389L1380.82 650.341C1380.82 650.341 1372.43 594.421 1368.45 582.643C1364.46 570.866 1349.99 566.815 1349.99 566.815Z" fill="#92BCE2" stroke="#263238" stroke-linecap="round" stroke-linejoin="round"/>
<path d="M1658.52 548.189C1658.52 548.189 1666.92 546.351 1674.89 575.335C1682.86 604.318 1692.47 645.914 1708.2 697.199C1723.93 748.484 1727 765.398 1725.78 776.841C1724.56 788.284 1715.5 800.98 1683.82 800.98C1652.15 800.98 1637.67 788.91 1629.28 761.764C1620.89 734.618 1622.11 650.759 1621.52 639.9C1620.93 629.042 1648.79 542.76 1658.52 548.189Z" fill="#92BCE2" stroke="#263238" stroke-linecap="round" stroke-linejoin="round"/>
<path d="M1442.12 1449.01C1442.12 1449.01 1421.52 1470.73 1409.39 1484.64C1397.27 1498.54 1393.03 1506.94 1413 1515.38C1432.97 1523.81 1463.94 1511.2 1473.04 1497.29C1482.14 1483.38 1501.53 1467.72 1501.53 1467.72C1501.53 1467.72 1511.81 1456.28 1498.47 1439.99C1485.12 1423.71 1448.16 1442.37 1442.12 1449.01Z" fill="white" stroke="#263238" stroke-linecap="round" stroke-linejoin="round"/>
<path d="M1565.76 1467.14C1565.76 1467.14 1586.36 1470.15 1597.27 1479.67C1608.18 1489.19 1646.4 1510.45 1671.82 1500.17C1697.25 1489.9 1680.93 1473.03 1667 1460.96C1659.18 1454.05 1650.64 1447.99 1641.53 1442.87C1641.53 1442.87 1600.92 1439.87 1582.8 1448.89C1564.67 1457.91 1565.76 1467.14 1565.76 1467.14Z" fill="white" stroke="#263238" stroke-linecap="round" stroke-linejoin="round"/>
<path d="M1418.46 1186.53C1418.46 1186.53 1428.19 1258.95 1423.32 1280.67C1418.46 1302.38 1404.53 1315.08 1414.93 1336.21C1422.63 1352.55 1428.27 1369.78 1431.71 1387.5C1432.93 1394.72 1426.26 1396.52 1431.71 1404.2C1435.69 1409.16 1438.95 1414.64 1441.41 1420.49C1441.41 1422.33 1434.15 1432.56 1434.15 1434.98C1434.15 1437.4 1437.8 1452.48 1437.8 1452.48C1437.8 1452.48 1457.18 1448.3 1471.11 1453.69C1481.2 1458.02 1490.76 1463.48 1499.6 1469.98C1499.6 1469.98 1512.18 1465.13 1516.59 1457.91C1518.97 1454.12 1520.4 1449.83 1520.79 1445.38C1521.37 1442.96 1527.46 1430.26 1526.87 1420.62C1526.28 1410.97 1519.57 1390.46 1519.57 1378.39C1519.57 1366.32 1528.67 1353.04 1528.67 1333.75C1528.67 1314.45 1519.57 1190.75 1519.57 1190.75L1527.96 1187.7C1527.96 1187.7 1541.3 1261.33 1541.3 1295.74C1541.3 1330.16 1531.02 1372.96 1537.69 1381.4C1544.36 1389.84 1552.21 1397.1 1552.21 1398.9C1552.21 1400.69 1544.32 1413.97 1546.17 1420.62C1549.05 1429.34 1551.47 1438.2 1553.43 1447.18C1553.43 1450.81 1560.1 1464.68 1565.55 1467.1C1571.01 1469.52 1573.94 1464.05 1606.16 1457.45C1638.39 1450.85 1656.51 1452.61 1653.45 1442.96C1650.39 1433.31 1647.41 1420.62 1643.76 1418.19C1640.11 1415.77 1644.97 1414.02 1643.76 1404.95C1642.54 1395.89 1635.87 1386.24 1629.83 1371.75C1623.79 1357.26 1632.22 1341.6 1634.65 1326.48C1637.09 1311.36 1633.44 1288.9 1627.39 1264.34C1621.35 1239.78 1626.76 1179.27 1626.76 1179.27L1629.83 1155.76C1629.83 1155.76 1537.06 1164.11 1480.09 1163.56L1418.88 1162.98C1418.88 1162.98 1414.85 1167.24 1418.46 1186.53Z" fill="#263238" stroke="#263238" stroke-linecap="round" stroke-linejoin="round"/>
<path d="M1653.66 934.328C1653.66 934.328 1662.05 1044.16 1673.04 1101.38C1679.37 1133.67 1683.38 1166.37 1685.04 1199.23H1640.95C1639.1 1199.23 1643.97 995.887 1645.14 977.887C1646.74 963.154 1649.59 948.583 1653.66 934.328Z" fill="#92BCE2" stroke="#263238" stroke-linecap="round" stroke-linejoin="round"/>
<path d="M1471.07 487.466C1471.07 487.466 1419.55 521.837 1392.91 533.906C1366.26 545.976 1351.66 561.678 1349.86 567.316C1348.06 572.954 1378.93 659.612 1378.93 659.612C1378.93 659.612 1377.13 946.231 1377.13 994.509C1377.13 1042.79 1361.98 1188.16 1363.79 1188.16C1365.59 1188.16 1414.14 1219.57 1480.76 1221.36C1547.39 1223.16 1568.87 1213.51 1589.84 1213.51C1610.82 1213.51 1652.78 1213.51 1653.49 1207.5C1654.2 1201.49 1654.71 1068.09 1655.29 1005.95C1655.88 943.809 1656.51 899.749 1655.29 889.517C1654.08 879.285 1637.13 658.401 1637.13 658.401C1637.13 658.401 1649.71 621.608 1657.14 592.04C1664.57 562.472 1664.4 558.839 1655.29 545.6C1646.19 532.361 1577.89 496.278 1565.76 491.642C1550.86 486.451 1535.35 483.208 1519.61 481.995C1508.2 481.201 1471.07 487.466 1471.07 487.466Z" fill="#92BCE2" stroke="#263238" stroke-linecap="round" stroke-linejoin="round"/>
<path d="M1357.24 732.823C1357.24 732.823 1365.13 750.906 1374.82 758.757C1384.51 766.609 1406.96 770.242 1411.79 782.312C1416.61 794.381 1411.79 803.402 1406.33 817.894C1400.88 832.385 1403.94 856.524 1383.93 859.656C1363.91 862.789 1357.87 855.48 1341.47 843.954C1325.06 832.427 1314.83 830.673 1305.14 813.174C1295.44 795.676 1292.55 771.412 1300.94 758.298" fill="#92BCE2"/>
<path d="M1357.24 732.823C1357.24 732.823 1365.13 750.906 1374.82 758.757C1384.51 766.609 1406.96 770.242 1411.79 782.312C1416.61 794.381 1411.79 803.402 1406.33 817.894C1400.88 832.385 1403.94 856.524 1383.93 859.656C1363.91 862.789 1357.87 855.48 1341.47 843.954C1325.06 832.427 1314.83 830.673 1305.14 813.174C1295.44 795.676 1292.55 771.412 1300.94 758.298" stroke="#263238" stroke-linecap="round" stroke-linejoin="round"/>
<path d="M1468.8 463.703L1466.87 514.403C1466.87 514.403 1462.05 521.628 1491.12 523.424C1509.81 524.399 1528.55 522.996 1546.88 519.247L1542.06 464.371C1542.06 464.371 1511.72 476.9 1494.14 471.011C1485.9 467.924 1477.43 465.48 1468.8 463.703Z" fill="white" stroke="#263238" stroke-linecap="round" stroke-linejoin="round"/>
<path d="M1457.27 451.049C1457.27 451.049 1453.07 509.517 1450.01 527.057C1446.94 544.597 1447.57 555.414 1454.2 559.632C1460.83 563.85 1499.64 578.968 1519.65 577.757C1539.67 576.546 1570 558.421 1572.39 552.992C1574.78 547.563 1554.27 462.408 1554.27 462.408L1551.2 466.042C1551.2 466.042 1556.66 510.686 1554.85 511.981C1553.05 513.275 1482.73 508.347 1469.98 507.804C1457.22 507.261 1460.92 506.593 1460.92 506.593L1460.29 455.309L1457.27 451.049Z" fill="white" stroke="#263238" stroke-linecap="round" stroke-linejoin="round"/>
<path d="M1455.34 520.626C1455.34 520.626 1521.58 530.356 1561.31 522.714" stroke="#263238" stroke-width="0.5" stroke-miterlimit="10"/>
<path d="M1452.57 535.911C1452.57 535.911 1498.72 555.331 1561.31 537.957" stroke="#263238" stroke-width="0.5" stroke-miterlimit="10"/>
<path d="M1457.43 553.952C1457.43 553.952 1501.36 577.548 1561.31 552.532" stroke="#263238" stroke-width="0.5" stroke-miterlimit="10"/>
<path d="M1564.59 389.49C1566.1 370.947 1567.36 351.904 1562.74 342.424C1555.48 327.347 1533.62 309.848 1502.12 311.06C1470.61 312.271 1443.92 324.34 1444.55 362.929C1444.55 362.929 1445.9 374.414 1447.45 388.488C1444.56 394.634 1443.55 401.489 1444.55 408.2C1445.53 414.64 1447.8 420.818 1451.22 426.367C1451.52 429.958 1451.73 433.049 1451.81 435.346C1452.4 451.633 1463.31 470.928 1473.04 477.568C1482.77 484.208 1500.9 494.482 1512.44 494.482C1523.97 494.482 1544.53 483.624 1554.39 467.921C1562.03 455.392 1562.78 447.039 1562.78 432.297H1563.37C1565.11 424.554 1566.13 416.67 1566.43 408.743C1566.68 402.272 1566.06 395.797 1564.59 389.49Z" fill="white" stroke="#263238" stroke-linecap="round" stroke-linejoin="round"/>
<path d="M1450.09 393.124C1450.09 393.124 1451.89 408.2 1454.92 407.574C1457.94 406.947 1461.59 385.272 1461.59 385.272L1450.09 393.124Z" fill="#263238" stroke="#263238" stroke-linecap="round" stroke-linejoin="round"/>
<path d="M1553.05 391.411C1553.05 391.411 1553.05 408.325 1557.24 410.748C1561.44 413.17 1564.5 396.256 1564.5 396.256C1561.07 393.864 1557.16 392.214 1553.05 391.411Z" fill="#263238" stroke="#263238" stroke-linecap="round" stroke-linejoin="round"/>
<path d="M1562.74 342.424C1555.48 327.347 1533.62 309.848 1502.12 311.06C1470.61 312.271 1443.92 324.34 1444.55 362.929C1444.55 362.929 1445.9 374.414 1447.45 388.488C1445.54 392.568 1444.44 396.979 1444.22 401.476C1456.01 392.08 1478.07 378.632 1505.77 381.054C1527.31 383.498 1548.02 390.766 1566.35 402.311C1566.16 397.993 1565.57 393.701 1564.59 389.49C1566.1 370.947 1567.57 352.029 1562.74 342.424Z" fill="#92BCE2" stroke="#263238" stroke-linecap="round" stroke-linejoin="round"/>
<path d="M1497.88 403.94L1494.23 425.657C1494.23 425.657 1487.56 426.242 1490.03 430.46C1492.51 434.678 1505.18 439.522 1511.26 437.726C1517.34 435.931 1523.39 429.875 1522.76 427.453C1522.57 426.728 1522.19 426.067 1521.66 425.538C1521.13 425.009 1520.46 424.632 1519.74 424.446L1511.85 402.103" stroke="#263238" stroke-linecap="round" stroke-linejoin="round"/>
<path d="M1491.21 448.626C1502.85 451.126 1514.93 450.71 1526.37 447.415" stroke="#263238" stroke-linecap="round" stroke-linejoin="round"/>
<path d="M1484.54 403.063C1484.54 406.237 1482.9 408.785 1480.89 408.785C1478.87 408.785 1477.28 406.237 1477.28 403.063C1477.28 399.889 1478.91 397.342 1480.89 397.342C1482.86 397.342 1484.54 399.764 1484.54 403.063Z" fill="#263238"/>
<path d="M1530.6 402.771C1530.6 405.945 1528.97 408.492 1526.99 408.492C1525.02 408.492 1523.34 405.945 1523.34 402.771C1523.34 399.597 1524.98 397.049 1526.99 397.049C1529.01 397.049 1530.6 399.764 1530.6 402.771Z" fill="#263238"/>
<path d="M1470.61 394.335C1470.61 394.335 1474.8 384.061 1488.19 387.694" stroke="#263238" stroke-linecap="round" stroke-linejoin="round"/>
<path d="M1515.46 388.279C1515.46 388.279 1528.04 379.217 1537.27 394.919" stroke="#263238" stroke-linecap="round" stroke-linejoin="round"/>
<path d="M1400.88 808.246C1400.88 808.246 1437.88 816.599 1446.36 814.887C1457.46 812.823 1467.64 807.328 1475.43 799.184C1486.38 788.326 1495.44 779.263 1495.44 788.326C1495.48 791.902 1494.8 795.45 1493.45 798.762C1492.1 802.075 1490.09 805.086 1487.56 807.62C1483.36 812.465 1475.43 817.894 1473.63 825.745C1471.82 833.597 1474.26 839.61 1483.95 843.244C1493.64 846.877 1523.93 852.265 1523.93 859.949C1523.93 867.633 1521.5 885.925 1510.59 891.939C1499.68 897.953 1473.04 893.735 1473.04 893.735C1473.04 893.735 1494.86 905.804 1490.62 908.853C1486.38 911.902 1473.63 907.642 1467.59 902.213C1461.54 896.784 1459.2 896.157 1441.49 883.503C1423.78 870.849 1408.76 855.731 1400.29 850.928C1395.7 848.787 1391.45 845.972 1387.7 842.576C1382.84 838.399 1381.03 830.047 1384.64 820.274C1385.87 817.379 1387.69 814.771 1389.99 812.614C1392.29 810.457 1395.01 808.799 1397.98 807.745L1400.88 808.246Z" fill="white" stroke="#263238" stroke-linecap="round" stroke-linejoin="round"/>
<path d="M1688.82 739.463C1688.82 739.463 1645.18 747.816 1640.95 750.906C1636.71 753.996 1640.95 766.609 1640.95 766.609C1640.95 766.609 1603.94 784.107 1590.01 793.755C1576.08 803.402 1588.79 822.738 1589.42 825.119C1589.42 825.119 1600.33 860.742 1618.5 872.812C1636.67 884.881 1655.46 880.621 1673.67 861.327C1691.88 842.032 1703.37 815.388 1711.85 806.409C1720.32 797.43 1729.43 788.91 1726.41 768.822C1723.39 748.734 1707.61 746.479 1707.61 746.479" fill="#92BCE2"/>
<path d="M1688.82 739.463C1688.82 739.463 1645.18 747.816 1640.95 750.906C1636.71 753.996 1640.95 766.609 1640.95 766.609C1640.95 766.609 1603.94 784.107 1590.01 793.755C1576.08 803.402 1588.79 822.738 1589.42 825.119C1589.42 825.119 1600.33 860.742 1618.5 872.812C1636.67 884.881 1655.46 880.621 1673.67 861.327C1691.88 842.032 1703.37 815.388 1711.85 806.409C1720.32 797.43 1729.43 788.91 1726.41 768.822C1723.39 748.734 1707.61 746.479 1707.61 746.479" stroke="#263238" stroke-linecap="round" stroke-linejoin="round"/>
<path d="M1599.7 819.105C1599.7 819.105 1571.85 826.33 1563.96 826.956C1556.07 827.583 1554.85 828.752 1550.03 825.119C1545.2 821.485 1522.72 808.414 1512.27 796.177C1501.82 783.94 1494.06 781.685 1495.28 788.326C1496.49 794.966 1494.06 799.769 1501.36 804.613C1508.66 809.458 1515.88 822.738 1515.88 828.167C1515.88 833.597 1515.29 835.392 1500.14 840.696C1485 846 1450.43 852.766 1453.99 856.984C1457.56 861.202 1464.9 862.413 1472.79 861.828C1480.68 861.244 1513.4 856.399 1515.79 858.195C1516.58 858.999 1517.17 859.976 1517.52 861.047C1517.86 862.119 1517.95 863.256 1517.77 864.367C1517.6 865.478 1517.17 866.533 1516.51 867.448C1515.85 868.364 1514.99 869.113 1513.99 869.638C1508.53 873.271 1489.15 873.271 1477.61 874.482C1466.08 875.694 1465.49 878.659 1470.36 881.123C1478.17 884.025 1486.48 885.372 1494.82 885.09C1504.51 885.09 1515.79 884.13 1510.97 887.137C1506.14 890.143 1499.43 890.77 1487.31 892.566C1475.18 894.361 1470.94 888.974 1472.79 893.777C1474.63 898.58 1489.15 898.621 1507.32 897.953C1523.85 897.113 1539.91 892.143 1554.01 883.503C1566.14 876.236 1610.36 865.378 1613.42 862.998C1616.49 860.617 1621.27 846.668 1618.25 829.796C1615.23 812.924 1599.7 819.105 1599.7 819.105Z" fill="white" stroke="#263238" stroke-linecap="round" stroke-linejoin="round"/>
<path d="M1647.62 748.484C1659.43 738.754 1672.22 730.272 1685.8 723.175" stroke="#263238" stroke-linecap="round" stroke-linejoin="round"/>
<path d="M1480.3 862.162C1480.3 862.162 1514.79 858.237 1518.27 857.735C1521.75 857.234 1528.13 861.16 1525.15 865.587C1522.17 870.014 1520.7 869.011 1508.37 871.475C1496.12 873.327 1483.74 874.151 1471.36 873.939" fill="white"/>
<path d="M1480.3 862.162C1480.3 862.162 1514.79 858.237 1518.27 857.735C1521.75 857.234 1528.13 861.16 1525.15 865.587C1522.17 870.014 1520.7 869.011 1508.37 871.475C1496.12 873.327 1483.74 874.151 1471.36 873.939" stroke="#263238" stroke-linecap="round" stroke-linejoin="round"/>
<path d="M1484.24 885.716C1484.24 885.716 1522.67 883.253 1521.71 886.218C1520.74 889.183 1518.27 893.067 1504.46 894.069C1490.66 895.071 1475.1 896.032 1462.05 889.642" fill="white"/>
<path d="M1484.24 885.716C1484.24 885.716 1522.67 883.253 1521.71 886.218C1520.74 889.183 1518.27 893.067 1504.46 894.069C1490.66 895.071 1475.1 896.032 1462.05 889.642" stroke="#263238" stroke-linecap="round" stroke-linejoin="round"/>
<path d="M345.984 632H370.608V625.664H353.76V598.4H345.984V632ZM387.59 586.016C389.174 586.016 390.902 588.512 394.214 588.512C397.622 588.512 399.638 586.256 399.686 582.56H395.942C395.846 583.808 395.126 584.72 393.83 584.72C392.15 584.72 390.422 582.224 387.206 582.224C383.798 582.224 381.686 584.384 381.638 588.224H385.478C385.574 586.832 386.294 586.016 387.59 586.016ZM390.662 592.928L394.79 595.664H400.31L393.926 590.192H387.398L381.014 595.664H386.534L390.662 592.928ZM390.662 597.824C380.054 597.824 372.278 605.216 372.278 615.2C372.278 625.184 380.054 632.576 390.662 632.576C401.222 632.576 409.046 625.232 409.046 615.2C409.046 605.168 401.222 597.824 390.662 597.824ZM390.662 625.952C384.662 625.952 380.15 621.584 380.15 615.2C380.15 608.816 384.662 604.448 390.662 604.448C396.662 604.448 401.174 608.816 401.174 615.2C401.174 621.584 396.662 625.952 390.662 625.952ZM414.89 632H422.666V598.4H414.89V632ZM467.274 598.4V611.648H452.01V598.4H444.234V632H452.01V618.224H467.274V632H475.05V598.4H467.274ZM495.72 592.016L499.896 595.664H505.368L499.032 588.752H492.408L486.072 595.664H491.544L495.72 592.016ZM490.728 625.76V617.984H506.328V611.936H490.728V604.64H508.392V598.4H483V632H509.016V625.76H490.728ZM495.96 635.504C494.088 635.504 492.648 636.896 492.648 638.864C492.648 640.832 494.088 642.08 495.96 642.08C497.832 642.08 499.272 640.832 499.272 638.864C499.272 636.896 497.832 635.504 495.96 635.504ZM535.757 632H543.533V604.736H554.285V598.4H525.005V604.736H535.757V632ZM581.508 598.4V611.648H566.244V598.4H558.468V632H566.244V618.224H581.508V632H589.284V598.4H581.508ZM632.226 585.248H624.594L619.266 591.056H624.69L632.226 585.248ZM613.506 592.928L617.634 595.664H623.154L616.77 590.192H610.242L603.858 595.664H609.378L613.506 592.928ZM613.506 597.824C602.898 597.824 595.122 605.216 595.122 615.2C595.122 625.184 602.898 632.576 613.506 632.576C624.066 632.576 631.89 625.232 631.89 615.2C631.89 605.168 624.066 597.824 613.506 597.824ZM613.506 625.952C607.506 625.952 602.994 621.584 602.994 615.2C602.994 608.816 607.506 604.448 613.506 604.448C619.506 604.448 624.018 608.816 624.018 615.2C624.018 621.584 619.506 625.952 613.506 625.952ZM660.87 598.4V618.8L644.166 598.4H637.734V632H645.414V611.6L662.166 632H668.55V598.4H660.87ZM699.204 624.512C697.236 625.568 695.268 625.952 693.156 625.952C686.724 625.952 682.26 621.488 682.26 615.2C682.26 608.816 686.724 604.448 693.252 604.448C696.66 604.448 699.492 605.648 701.94 608.24L706.932 603.632C703.668 599.84 698.772 597.824 692.868 597.824C682.164 597.824 674.388 605.072 674.388 615.2C674.388 625.328 682.164 632.576 692.724 632.576C697.524 632.576 702.612 631.088 706.308 628.304V614.672H699.204V624.512Z" fill="#263238"/>
</svg>
