<svg width="723" height="722" viewBox="0 0 723 722" fill="none" xmlns="http://www.w3.org/2000/svg">
<g clip-path="url(#clip0_3306_15501)">
<path d="M717.97 361.094C717.97 557.925 558.407 717.487 361.577 717.487C164.747 717.487 5.18415 557.925 5.18415 361.094C5.18415 164.264 164.747 4.70155 361.577 4.70155C558.407 4.70155 717.97 164.264 717.97 361.094Z" fill="url(#paint0_linear_3306_15501)" stroke="url(#paint1_linear_3306_15501)" stroke-width="9.0226"/>
<path d="M497.463 180.642H361.578H225.693C201.079 180.642 181.126 200.595 181.126 225.207V494.208C181.126 518.821 201.079 538.774 225.693 538.774H361.578H450.975V492.285C450.975 467.672 470.928 447.718 495.54 447.718L542.03 445.451V225.207C542.03 200.595 522.077 180.642 497.463 180.642ZM454.147 367.601C454.147 380.633 443.583 391.199 430.544 391.199H393.073V428.672C393.073 441.71 382.509 452.279 369.469 452.279H355.836H353.686C340.65 452.279 330.079 441.71 330.079 428.672V391.199H292.607C279.577 391.199 269.009 380.633 269.009 367.601V351.809C269.009 338.777 279.577 328.21 292.607 328.21H330.079V290.741C330.079 277.701 340.65 267.137 353.686 267.137H355.836H369.469C382.509 267.137 393.073 277.701 393.073 290.741V328.21H430.544C443.583 328.21 454.147 338.777 454.147 351.809V367.601Z" fill="white"/>
<path d="M450.891 491.128V538.773L542.03 445.45H496.567C471.341 445.45 450.891 465.9 450.891 491.128Z" fill="#3295CC"/>
<path d="M430.543 328.21H393.072V290.741C393.072 277.701 382.508 267.136 369.468 267.136H355.835H353.685C340.649 267.136 330.078 277.701 330.078 290.741V328.21H292.606C279.577 328.21 269.008 338.777 269.008 351.809V367.6C269.008 380.632 279.577 391.199 292.606 391.199H330.078V428.672C330.078 441.71 340.649 452.279 353.685 452.279H355.835H369.468C382.508 452.279 393.072 441.71 393.072 428.672V391.199H430.543C443.582 391.199 454.147 380.632 454.147 367.6V351.809C454.147 338.777 443.581 328.21 430.543 328.21Z" fill="url(#paint2_linear_3306_15501)"/>
</g>
<defs>
<linearGradient id="paint0_linear_3306_15501" x1="251.301" y1="570.419" x2="733.975" y2="528.558" gradientUnits="userSpaceOnUse">
<stop stop-color="#00B5F1"/>
<stop offset="1" stop-color="#00E0FF"/>
</linearGradient>
<linearGradient id="paint1_linear_3306_15501" x1="251.301" y1="570.419" x2="733.975" y2="528.558" gradientUnits="userSpaceOnUse">
<stop stop-color="#00B5F1"/>
<stop offset="1" stop-color="#00E0FF"/>
</linearGradient>
<linearGradient id="paint2_linear_3306_15501" x1="333.292" y1="413.399" x2="457.095" y2="402.662" gradientUnits="userSpaceOnUse">
<stop stop-color="#00B5F1"/>
<stop offset="1" stop-color="#00E0FF"/>
</linearGradient>
<clipPath id="clip0_3306_15501">
<rect width="721.808" height="721.808" fill="white" transform="translate(0.672852 0.190186)"/>
</clipPath>
</defs>
</svg>
